<svg xmlns="http://www.w3.org/2000/svg" xmlns:xlink="http://www.w3.org/1999/xlink" xmlns:inkscape="http://www.inkscape.org/namespaces/inkscape" version="1.1" width="841.89" height="595.276" viewBox="0 0 841.89 595.276">
<defs>
<clipPath id="clip_1">
<path transform="matrix(.16493,0,0,-.16493,606.623,69.64502)" d="M0 0H298V302H0Z"/>
</clipPath>
<clipPath id="clip_2">
<path transform="matrix(.16493,0,0,.16493,606.623,19.836159)" d="M0 .199H298V301.199H0Z"/>
</clipPath>
<clipPath id="clip_3">
<path transform="matrix(.16493,0,0,.16493,606.623,19.836159)" d="M0 0H299V302H0Z"/>
</clipPath>
</defs>
<g>
<text xml:space="preserve" transform="matrix(1 0 -0 1 0 595.276)" font-size="14.3462" font-family="Computer Modern"><tspan y="-545.557" x="56.693 66.247577 70.14974 70.14974 77.17938 84.98372 91.22432 103.33251 111.13685 116.674488 124.866168 131.10675 131.89579 137.36168 137.37602 144.40566 152.20999 152.20999 159.23963 165.48023 167.04396 175.63733 181.28974 181.10323 188.52022 198.86383 200.22672">Pl&#x00b4;anekuspo&#x02c7;r&#x00b4;ad&#x00b4;an&#x00b4;&#x0131;t&#x00b4;ym&#x02da;u</tspan></text>
<g>
<g clip-path="url(#clip_1)">
<path transform="matrix(.16493,0,0,.16493,606.623,19.836159)" d="M196.801 80.191H244.801V128.19101H196.801Z" fill="#ffffff"/>
<path transform="matrix(.16493,0,0,.16493,606.623,19.836159)" d="M148.801 128.191H196.801V176.191H148.801Z" fill="#ffffff"/>
<path transform="matrix(.16493,0,0,.16493,606.623,19.836159)" d="M196.949 128.191H244.949V176.191H196.949Z" fill="#ffffff"/>
<path transform="matrix(.16493,0,0,.16493,606.623,19.836159)" d="M100.801 128.191H148.801V176.191H100.801Z" fill="#ffffff"/>
<path transform="matrix(.16493,0,0,.16493,606.623,19.836159)" d="M100.801 80.191H148.801V128.19101H100.801Z" fill="#ffffff"/>
<path transform="matrix(.16493,0,0,.16493,606.623,19.836159)" d="M52.801 128.191H100.800998V176.191H52.801Z" fill="#ffffff"/>
<path transform="matrix(.16493,0,0,.16493,606.623,19.836159)" d="M52.801 176.191H100.800998V224.191H52.801Z" fill="#ffffff"/>
<path transform="matrix(.16493,0,0,.16493,606.623,19.836159)" d="M148.801 176.191H196.801V224.191H148.801Z" fill="#ffffff"/>
<g clip-path="url(#clip_2)">
<g clip-path="url(#clip_3)">
<path transform="matrix(.16493,0,0,-.16493,606.623,19.836159)" stroke-width="3.2" stroke-linecap="round" stroke-linejoin="round" fill="none" stroke="#000000" d="M1.602-35.391H265.602V-299.391H1.602Z"/>
<path transform="matrix(.16493,0,0,-.16493,606.623,19.836159)" stroke-width="3.2" stroke-linecap="round" stroke-linejoin="round" fill="none" stroke="#000000" d="M32-1.789H296V-265.789H32Z"/>
<path transform="matrix(.16493,0,0,-.16493,606.623,19.836159)" stroke-width="3.2" stroke-linecap="round" stroke-linejoin="round" fill="none" stroke="#000000" d="M196.801-80.191H244.801V-128.19101H196.801Z"/>
<path transform="matrix(.16493,0,0,-.16493,606.623,19.836159)" stroke-width="3.2" stroke-linecap="round" stroke-linejoin="round" fill="none" stroke="#000000" d="M148.801-128.191H196.801V-176.191H148.801Z"/>
<path transform="matrix(.16493,0,0,-.16493,606.623,19.836159)" stroke-width="3.2" stroke-linecap="round" stroke-linejoin="round" fill="none" stroke="#000000" d="M196.949-128.191H244.949V-176.191H196.949Z"/>
<path transform="matrix(.16493,0,0,-.16493,606.623,19.836159)" stroke-width="3.2" stroke-linecap="round" stroke-linejoin="round" fill="none" stroke="#000000" d="M100.801-128.191H148.801V-176.191H100.801Z"/>
<path transform="matrix(.16493,0,0,-.16493,606.623,19.836159)" stroke-width="3.2" stroke-linecap="round" stroke-linejoin="round" fill="none" stroke="#000000" d="M100.801-80.191H148.801V-128.19101H100.801Z"/>
<path transform="matrix(.16493,0,0,-.16493,606.623,19.836159)" stroke-width="3.2" stroke-linecap="round" stroke-linejoin="round" fill="none" stroke="#000000" d="M52.801-128.191H100.800998V-176.191H52.801Z"/>
<path transform="matrix(.16493,0,0,-.16493,606.623,19.836159)" stroke-width="3.2" stroke-linecap="round" stroke-linejoin="round" fill="none" stroke="#000000" d="M52.801-176.191H100.800998V-224.191H52.801Z"/>
<path transform="matrix(.16493,0,0,-.16493,606.623,19.836159)" stroke-width="3.2" stroke-linecap="round" stroke-linejoin="round" fill="none" stroke="#000000" d="M148.801-176.191H196.801V-224.191H148.801Z"/>
<path transform="matrix(.16493,0,0,.16493,606.623,19.836159)" d="M84.34 139.309 90.891 164.199H87.73L83.699 148.879 76.945 165.102 70.113 148.867 66.078 164.199H62.898L69.445 139.309 76.934 157.102 84.34 139.309"/>
<path transform="matrix(.16493,0,0,.16493,606.623,19.836159)" d="M124.645 139.91 135.992 164.602H132.59L129.789 158.504H119.645L116.891 164.602H113.5ZM124.672 147.371 120.863 155.805H128.547ZM124.672 147.371"/>
<path transform="matrix(.16493,0,0,.16493,606.623,19.836159)" d="M180.293 142.789 177.648 144.906C176.941 144.199 176.328 143.676 175.766 143.328 175.18 142.973 174.387 142.809 173.32 142.809 172.148 142.805 171.211 143.074 170.484 143.609 169.73 144.141 169.398 144.828 169.398 145.668 169.363 146.371 169.715 147.039 170.352 147.598 170.973 148.121 172.074 148.762 173.602 149.422 175.133 150.07 176.32 150.688 177.172 151.258 178 151.805 178.723 152.453 179.27 153.141 179.797 153.812 180.227 154.551 180.492 155.312 180.73 156.07 180.895 156.879 180.895 157.727 180.863 159.703 180.172 161.402 178.734 162.805 177.281 164.199 175.551 164.898 173.508 164.898 171.508 164.898 169.75 164.355 168.223 163.262 166.688 162.148 165.523 160.527 164.699 158.34L167.996 157.402C169.141 160.133 170.973 161.504 173.395 161.504 174.539 161.5 175.547 161.148 176.324 160.438 177.098 159.719 177.492 158.836 177.492 157.758 177.465 157.09 177.289 156.461 176.887 155.809 176.453 155.152 175.98 154.617 175.379 154.195 174.75 153.742 173.805 153.277 172.469 152.707 171.109 152.137 170.105 151.625 169.387 151.164 168.641 150.688 168.047 150.16 167.52 149.527 166.988 148.887 166.609 148.266 166.363 147.637 166.098 146.996 165.996 146.336 165.996 145.621 165.965 143.895 166.684 142.438 168.051 141.227 169.402 140.008 171.082 139.41 173.035 139.41 174.316 139.406 175.641 139.688 176.973 140.246 178.277 140.785 179.41 141.652 180.293 142.789"/>
<path transform="matrix(.16493,0,0,.16493,606.623,19.836159)" d="M207.801 151.984C207.801 148.504 209.098 145.574 211.691 143.109 214.258 140.641 217.406 139.41 221.047 139.41 224.586 139.406 227.664 140.652 230.234 143.137 232.793 145.605 234.09 148.57 234.09 151.984 234.059 155.574 232.82 158.66 230.281 161.156 227.715 163.633 224.629 164.898 220.934 164.898 217.281 164.898 214.191 163.645 211.637 161.129 209.066 158.602 207.801 155.566 207.801 151.984ZM230.691 152.172C230.66 149.516 229.738 147.32 227.836 145.516 225.922 143.703 223.59 142.809 220.812 142.809 218.164 142.805 215.906 143.727 214.023 145.562 212.133 147.379 211.199 149.602 211.199 152.172 211.164 154.758 212.164 156.988 214.098 158.797 216 160.566 218.402 161.504 221.207 161.504 223.781 161.5 226.012 160.582 227.883 158.738 229.727 156.883 230.691 154.707 230.691 152.172"/>
<path transform="matrix(.16493,0,0,.16493,606.623,19.836159)" d="M128.199 104.191C128.199 106.07 126.68 107.59 124.801 107.59 122.922 107.59 121.398 106.07 121.398 104.191 121.398 102.312 122.922 100.789 124.801 100.789 126.68 100.789 128.199 102.312 128.199 104.191"/>
<path transform="matrix(.16493,0,0,.16493,606.623,19.836159)" d="M224.199 104.191C224.199 106.07 222.68 107.59 220.801 107.59 218.922 107.59 217.398 106.07 217.398 104.191 217.398 102.312 218.922 100.789 220.801 100.789 222.68 100.789 224.199 102.312 224.199 104.191"/>
<path transform="matrix(.16493,0,0,.16493,606.623,19.836159)" d="M80.199 199.891C80.199 201.77 78.68 203.289 76.801 203.289 74.922 203.289 73.398 201.77 73.398 199.891 73.398 198.012 74.922 196.492 76.801 196.492 78.68 196.492 80.199 198.012 80.199 199.891"/>
<path transform="matrix(.16493,0,0,.16493,606.623,19.836159)" d="M92.199 211.891C92.199 213.77 90.68 215.289 88.801 215.289 86.922 215.289 85.398 213.77 85.398 211.891 85.398 210.012 86.922 208.492 88.801 208.492 90.68 208.492 92.199 210.012 92.199 211.891"/>
<path transform="matrix(.16493,0,0,.16493,606.623,19.836159)" d="M68.199 187.891C68.199 189.77 66.68 191.289 64.801 191.289 62.922 191.289 61.398 189.77 61.398 187.891 61.398 186.012 62.922 184.492 64.801 184.492 66.68 184.492 68.199 186.012 68.199 187.891"/>
<path transform="matrix(.16493,0,0,.16493,606.623,19.836159)" d="M188.199 211.891C188.199 213.77 186.68 215.289 184.801 215.289 182.922 215.289 181.398 213.77 181.398 211.891 181.398 210.012 182.922 208.492 184.801 208.492 186.68 208.492 188.199 210.012 188.199 211.891"/>
<path transform="matrix(.16493,0,0,.16493,606.623,19.836159)" d="M188.199 187.891C188.199 189.77 186.68 191.289 184.801 191.289 182.922 191.289 181.398 189.77 181.398 187.891 181.398 186.012 182.922 184.492 184.801 184.492 186.68 184.492 188.199 186.012 188.199 187.891"/>
<path transform="matrix(.16493,0,0,.16493,606.623,19.836159)" d="M164.199 211.891C164.199 213.77 162.68 215.289 160.801 215.289 158.922 215.289 157.398 213.77 157.398 211.891 157.398 210.012 158.922 208.492 160.801 208.492 162.68 208.492 164.199 210.012 164.199 211.891"/>
<path transform="matrix(.16493,0,0,.16493,606.623,19.836159)" d="M164.199 187.891C164.199 189.77 162.68 191.289 160.801 191.289 158.922 191.289 157.398 189.77 157.398 187.891 157.398 186.012 158.922 184.492 160.801 184.492 162.68 184.492 164.199 186.012 164.199 187.891"/>
</g>
</g>
</g>
</g>
<text xml:space="preserve" transform="matrix(1 0 -0 1 0 595.276)" font-size="14.3462" font-family="Computer Modern"><tspan y="-545.557" x="663.244 676.11257 683.1422 690.94656 702.6531 714.37399 721.5901 728.61978 734.08566 745.7922 752.82186 759.8515 766.88119">MaSo&#x2013;Jaro2026</tspan></text>
<path transform="matrix(1,0,0,-1,56.693,78.41199)" stroke-width=".398" stroke-linecap="butt" stroke-miterlimit="10" stroke-linejoin="miter" fill="none" stroke="#000000" d="M0 0H717.165"/>
<text xml:space="preserve" transform="matrix(1 0 -0 1 0 595.276)" font-size="20.6625" font-family="Computer Modern"><tspan y="-477.808" x="388.605 401.04383 411.06517 421.6237 426.7893 437.34785">Podium</tspan></text>
<path transform="matrix(1,0,0,-1,62.362,124.478)" stroke-width=".996" stroke-linecap="butt" stroke-miterlimit="10" stroke-linejoin="miter" fill="none" stroke="#000000" d="M0 0H717.165"/>
<path transform="matrix(1,0,0,-1,62.058,130.61899)" stroke-width=".398" stroke-linecap="butt" stroke-miterlimit="10" stroke-linejoin="miter" fill="none" stroke="#000000" d="M0 0H717.774"/>
<path transform="matrix(1,0,0,-1,62.257,202.56201)" stroke-width=".398" stroke-linecap="butt" stroke-miterlimit="10" stroke-linejoin="miter" fill="none" stroke="#000000" d="M0 0V71.744"/>
<text xml:space="preserve" transform="matrix(1 0 -0 1 0 595.276)" font-size="24.7871" font-family="Computer Modern" font-weight="bold"><tspan y="-433.574" x="160.906 174.86115 188.81629">707</tspan></text>
<text xml:space="preserve" transform="matrix(1 0 -0 1 0 595.276)" font-size="9.9626" font-family="Computer Modern" font-weight="bold"><tspan y="-421.61903" x="146.666 155.6423 158.82038 165.18648 175.36826 183.96598 189.41551 190.01328 194.5363 199.78659 205.52506 209.46028 210.60599">KlubRy&#x02c7;savc&#x02da;u</tspan></text>
<text xml:space="preserve" transform="matrix(1 0 -0 1 0 595.276)" font-size="9.9626" font-family="Computer Modern"><tspan y="-409.252" x="136.323 145.73766 150.71895 153.48856 159.02776 164.00905 167.91439 170.96294 174.8882 180.14846 180.14846 188.4473">Waldorfsk&#x00b4;aZ</tspan><tspan y="-411.77104" x="194.799">&#x02c7;</tspan><tspan y="-409.252" x="194.522 203.37876 210.16329 212.93289 217.3563 222.05864 221.77968">SPlze&#x02c7;n</tspan></text>
<path transform="matrix(1,0,0,-1,301.382,202.56201)" stroke-width=".398" stroke-linecap="butt" stroke-miterlimit="10" stroke-linejoin="miter" fill="none" stroke="#000000" d="M0 0V71.744"/>
<text xml:space="preserve" transform="matrix(1 0 -0 1 0 595.276)" font-size="24.7871" font-family="Computer Modern" font-weight="bold"><tspan y="-433.574" x="400.031 413.98616 427.94129">708</tspan></text>
<text xml:space="preserve" transform="matrix(1 0 -0 1 0 595.276)" font-size="9.9626" font-family="Computer Modern" font-weight="bold"><tspan y="-421.61903" x="409.073 414.99079 417.85005 418.16883 423.2597 428.3506 429.6258">Ji&#x02c7;zn&#x00b4;&#x0131;</tspan></text>
<text xml:space="preserve" transform="matrix(1 0 -0 1 0 595.276)" font-size="9.9626" font-family="Computer Modern"><tspan y="-409.252" x="357.115">Z</tspan><tspan y="-411.77104" x="363.47999">&#x02c7;</tspan><tspan y="-409.252" x="363.20298 372.05973 377.1805 379.67115 379.95008 384.37348 388.80686 389.9127 396.0098 401.00108 401.549 405.45436 409.87776 415.41697 423.43687 423.7158 428.1392 432.06446 434.83409 435.9399 442.02705 449.35954 454.34083 459.60108 464.86134 469.28474 474.26603 479.52629">SJi&#x02c7;zn&#x00b4;&#x0131;p&#x02c7;redm&#x02c7;est&#x00b4;&#x0131;Rokycany</tspan></text>
<path transform="matrix(1,0,0,-1,540.508,202.56201)" stroke-width=".398" stroke-linecap="butt" stroke-miterlimit="10" stroke-linejoin="miter" fill="none" stroke="#000000" d="M0 0V71.744"/>
<text xml:space="preserve" transform="matrix(1 0 -0 1 0 595.276)" font-size="24.7871" font-family="Computer Modern" font-weight="bold"><tspan y="-433.574" x="639.156 653.11117 667.0663">710</tspan></text>
<text xml:space="preserve" transform="matrix(1 0 -0 1 0 595.276)" font-size="9.9626" font-family="Computer Modern" font-weight="bold"><tspan y="-421.61903" x="640.954 648.2765 648.7846 653.5069 658.1495 658.7572 663.2802 666.4583 667.7335 670.91159 676.00247">P&#x02c7;re&#x02c7;st&#x00b4;&#x0131;ci</tspan></text>
<text xml:space="preserve" transform="matrix(1 0 -0 1 0 595.276)" font-size="9.9626" font-family="Computer Modern"><tspan y="-409.252" x="603.269">Z</tspan><tspan y="-411.77104" x="609.634">&#x02c7;</tspan><tspan y="-409.252" x="609.357 618.21377 623.33456 628.31588 632.24118 636.66458 639.71316 648.022 655.4939 658.2635 658.2635 663.2448 668.50509 673.7653 682.34317 688.5897 689.12777 693.0331 696.92849 697.4565 701.3818 705.2572 708.0268 712.4502">SJosefaHl&#x00b4;avkyP&#x02c7;re&#x02c7;stice</tspan></text>
<path transform="matrix(1,0,0,-1,779.633,202.56201)" stroke-width=".398" stroke-linecap="butt" stroke-miterlimit="10" stroke-linejoin="miter" fill="none" stroke="#000000" d="M0 0V71.744"/>
<path transform="matrix(1,0,0,-1,62.058,202.76099)" stroke-width=".398" stroke-linecap="butt" stroke-miterlimit="10" stroke-linejoin="miter" fill="none" stroke="#000000" d="M0 0H717.774"/>
<path transform="matrix(1,0,0,-1,62.257,274.704)" stroke-width=".398" stroke-linecap="butt" stroke-miterlimit="10" stroke-linejoin="miter" fill="none" stroke="#000000" d="M0 0V71.744"/>
<text xml:space="preserve" transform="matrix(1 0 -0 1 0 595.276)" font-size="24.7871" font-family="Computer Modern" font-weight="bold"><tspan y="-361.432" x="160.906 174.86115 188.81629">711</tspan></text>
<text xml:space="preserve" transform="matrix(1 0 -0 1 0 595.276)" font-size="9.9626" font-family="Computer Modern" font-weight="bold"><tspan y="-349.476" x="136.147 144.42592 150.47322 156.52053 160.9738 165.45697 165.69608 174.76204 179.77324 179.85295 184.82428 185.42205 189.94507 195.67357 201.40207 204.5901 209.8404 210.1592 215.25009 221.2974">Chytr&#x00b4;ez&#x00b4;a&#x02c7;skola&#x02c7;cky</tspan></text>
<text xml:space="preserve" transform="matrix(1 0 -0 1 0 595.276)" font-size="9.9626" font-family="Computer Modern"><tspan y="-337.11003" x="128.851">Z</tspan><tspan y="-339.62904" x="135.216">&#x02c7;</tspan><tspan y="-337.11003" x="134.94 143.79676 151.40818 156.94738 161.92868 166.35208 169.12169 173.04695 178.3072 178.3072 183.2885 189.38562 194.92482 198.80028 202.70561 207.6869 212.66822 217.6495 223.1887 225.95832 230.38172">SDukelsk&#x00b4;a,Strakonice</tspan></text>
<path transform="matrix(1,0,0,-1,301.382,274.704)" stroke-width=".398" stroke-linecap="butt" stroke-miterlimit="10" stroke-linejoin="miter" fill="none" stroke="#000000" d="M0 0V71.744"/>
<text xml:space="preserve" transform="matrix(1 0 -0 1 0 595.276)" font-size="24.7871" font-family="Computer Modern" font-weight="bold"><tspan y="-361.432" x="400.031 413.98616 427.94129">714</tspan></text>
<text xml:space="preserve" transform="matrix(1 0 -0 1 0 595.276)" font-size="9.9626" font-family="Computer Modern" font-weight="bold"><tspan y="-349.476" x="399.224 407.82173 413.3908 419.1193">Rake</tspan><tspan y="-351.37403" x="423.73">&#x02c7;</tspan><tspan y="-349.476" x="424.366 428.73957 428.81925 434.38835 439.47923">t&#x00b4;aci</tspan></text>
<text xml:space="preserve" transform="matrix(1 0 -0 1 0 595.276)" font-size="9.9626" font-family="Computer Modern"><tspan y="-337.11003" x="355.19099">Z</tspan><tspan y="-339.62904" x="361.55598">&#x02c7;</tspan><tspan y="-337.11003" x="361.27998 370.13673 378.44554">SaM</tspan><tspan y="-339.62904" x="387.84696">&#x02c7;</tspan><tspan y="-337.11003" x="387.56996 396.4267 401.408 405.8314 411.3706 418.57356 425.07914 430.06044 433.93589 437.81135 442.79264 448.33186 456.63069 464.38157 464.24208 468.9743 469.50233 473.42759 476.19718 481.7364">Sgen.PattonaD&#x00b4;y&#x02c7;sina</tspan></text>
<path transform="matrix(1,0,0,-1,540.508,274.704)" stroke-width=".398" stroke-linecap="butt" stroke-miterlimit="10" stroke-linejoin="miter" fill="none" stroke="#000000" d="M0 0V71.744"/>
<text xml:space="preserve" transform="matrix(1 0 -0 1 0 595.276)" font-size="24.7871" font-family="Computer Modern" font-weight="bold"><tspan y="-361.432" x="639.156 653.11117 667.0663">704</tspan></text>
<text xml:space="preserve" transform="matrix(1 0 -0 1 0 595.276)" font-size="9.9626" font-family="Computer Modern" font-weight="bold"><tspan y="-349.476" x="636.361 642.7271 648.8541 649.09329 654.34359 660.39089 666.75698 669.8553 669.935 675.5041 680.595">Sn&#x02c7;ehul&#x00b4;aci</tspan></text>
<text xml:space="preserve" transform="matrix(1 0 -0 1 0 595.276)" font-size="9.9626" font-family="Computer Modern"><tspan y="-337.11003" x="607.10208">Z</tspan><tspan y="-339.62904" x="613.46707">&#x02c7;</tspan><tspan y="-337.11003" x="613.19009 622.0468 629.65829 635.19747 640.1788 644.6121 647.3817 651.307 656.56729 656.56729 661.5486 667.63577 673.1749 677.05038 680.9557 685.937 690.91836 695.89968 701.43887 704.20846 708.63186">SDukelsk&#x00b4;a,Strakonice</tspan></text>
<path transform="matrix(1,0,0,-1,779.633,274.704)" stroke-width=".398" stroke-linecap="butt" stroke-miterlimit="10" stroke-linejoin="miter" fill="none" stroke="#000000" d="M0 0V71.744"/>
<path transform="matrix(1,0,0,-1,62.058,274.903)" stroke-width=".398" stroke-linecap="butt" stroke-miterlimit="10" stroke-linejoin="miter" fill="none" stroke="#000000" d="M0 0H717.774"/>
<path transform="matrix(1,0,0,-1,62.257,346.846)" stroke-width=".398" stroke-linecap="butt" stroke-miterlimit="10" stroke-linejoin="miter" fill="none" stroke="#000000" d="M0 0V71.744"/>
<text xml:space="preserve" transform="matrix(1 0 -0 1 0 595.276)" font-size="24.7871" font-family="Computer Modern" font-weight="bold"><tspan y="-289.29" x="160.906 174.86115 188.81629">709</tspan></text>
<text xml:space="preserve" transform="matrix(1 0 -0 1 0 595.276)" font-size="9.9626" font-family="Computer Modern" font-weight="bold"><tspan y="-277.334" x="170.64601 177.01212 184.84272">SPB</tspan></text>
<text xml:space="preserve" transform="matrix(1 0 -0 1 0 595.276)" font-size="9.9626" font-family="Computer Modern"><tspan y="-264.96803" x="144.51502">Z</tspan><tspan y="-267.48704" x="150.88002">&#x02c7;</tspan><tspan y="-264.96803" x="150.60303 159.45978 164.99898 168.87444 173.85573 177.90055 177.76107 186.34883 193.13336 195.90297 200.32637 204.74977 210.28897 214.71237">SStar&#x00b4;yPlzenec</tspan></text>
<path transform="matrix(1,0,0,-1,301.382,346.846)" stroke-width=".398" stroke-linecap="butt" stroke-miterlimit="10" stroke-linejoin="miter" fill="none" stroke="#000000" d="M0 0V71.744"/>
<text xml:space="preserve" transform="matrix(1 0 -0 1 0 595.276)" font-size="24.7871" font-family="Computer Modern" font-weight="bold"><tspan y="-289.29" x="400.031 413.98616 427.94129">705</tspan></text>
<text xml:space="preserve" transform="matrix(1 0 -0 1 0 595.276)" font-size="9.9626" font-family="Computer Modern" font-weight="bold"><tspan y="-277.334" x="375.84303 383.99244 389.56153 392.7396 397.9899 401.43696 402.71217 405.89024 411.9375 421.81047 427.22016 432.78926 439.15534 445.2026 445.5214 449.33708 450.61228 453.79035 459.83763">Baler&#x00b4;&#x0131;nykapu&#x02c7;c&#x00b4;&#x0131;ny</tspan></text>
<text xml:space="preserve" transform="matrix(1 0 -0 1 0 595.276)" font-size="9.9626" font-family="Computer Modern"><tspan y="-264.96803" x="379.78004 384.76133 389.7426 396.9356">17.Z</tspan><tspan y="-267.48704" x="403.30305">&#x02c7;</tspan><tspan y="-264.96803" x="403.02604 411.88279 420.1916">SaM</tspan><tspan y="-267.48704" x="429.59303">&#x02c7;</tspan><tspan y="-264.96803" x="429.316 438.17277 444.9573 447.7269 452.1503 456.85267 456.5737">SPlze&#x02c7;n</tspan></text>
<path transform="matrix(1,0,0,-1,540.508,346.846)" stroke-width=".398" stroke-linecap="butt" stroke-miterlimit="10" stroke-linejoin="miter" fill="none" stroke="#000000" d="M0 0V71.744"/>
<text xml:space="preserve" transform="matrix(1 0 -0 1 0 595.276)" font-size="24.7871" font-family="Computer Modern" font-weight="bold"><tspan y="-289.29" x="639.156 653.11117 667.0663">702</tspan></text>
<text xml:space="preserve" transform="matrix(1 0 -0 1 0 595.276)" font-size="9.9626" font-family="Computer Modern" font-weight="bold"><tspan y="-277.334" x="649.118 655.4841 662.3583">SPA</tspan></text>
<text xml:space="preserve" transform="matrix(1 0 -0 1 0 595.276)" font-size="9.9626" font-family="Computer Modern"><tspan y="-264.96803" x="622.766">Z</tspan><tspan y="-267.48704" x="629.131">&#x02c7;</tspan><tspan y="-264.96803" x="628.854 637.71078 643.24996 647.12539 652.1067 656.1515 656.012 664.5998 671.3744 674.144 678.57736 683.00076 688.5399 692.9633">SStar&#x00b4;yPlzenec</tspan></text>
<path transform="matrix(1,0,0,-1,779.633,346.846)" stroke-width=".398" stroke-linecap="butt" stroke-miterlimit="10" stroke-linejoin="miter" fill="none" stroke="#000000" d="M0 0V71.744"/>
<path transform="matrix(1,0,0,-1,62.058,347.04499)" stroke-width=".398" stroke-linecap="butt" stroke-miterlimit="10" stroke-linejoin="miter" fill="none" stroke="#000000" d="M0 0H717.774"/>
<path transform="matrix(1,0,0,-1,62.257,419.099)" stroke-width=".398" stroke-linecap="butt" stroke-miterlimit="10" stroke-linejoin="miter" fill="none" stroke="#000000" d="M0 0V71.854"/>
<text xml:space="preserve" transform="matrix(1 0 -0 1 0 595.276)" font-size="24.7871" font-family="Computer Modern" font-weight="bold"><tspan y="-217.12" x="160.906 174.86115 188.81629">701</tspan></text>
<text xml:space="preserve" transform="matrix(1 0 -0 1 0 595.276)" font-size="9.9626" font-family="Computer Modern" font-weight="bold"><tspan y="-205.165" x="161.559 170.16669 173.34476 179.26255 185.62865 196.50782">OlJuMa</tspan></text>
<text xml:space="preserve" transform="matrix(1 0 -0 1 0 595.276)" font-size="9.9626" font-family="Computer Modern"><tspan y="-192.799" x="136.323 145.73766 150.71895 153.48856 159.02776 164.00905 167.91439 170.96294 174.8882 180.14846 180.14846 188.4473">Waldorfsk&#x00b4;aZ</tspan><tspan y="-195.317" x="194.799">&#x02c7;</tspan><tspan y="-192.799" x="194.522 203.37876 210.16329 212.93289 217.3563 222.05864 221.77968">SPlze&#x02c7;n</tspan></text>
<path transform="matrix(1,0,0,-1,301.382,419.099)" stroke-width=".398" stroke-linecap="butt" stroke-miterlimit="10" stroke-linejoin="miter" fill="none" stroke="#000000" d="M0 0V71.854"/>
<text xml:space="preserve" transform="matrix(1 0 -0 1 0 595.276)" font-size="24.7871" font-family="Computer Modern" font-weight="bold"><tspan y="-217.017" x="400.031 413.98616 427.94129">713</tspan></text>
<text xml:space="preserve" transform="matrix(1 0 -0 1 0 595.276)" font-size="9.9626" font-family="Computer Modern" font-weight="bold"><tspan y="-205.062" x="392.45503 400.1561 405.4064 411.1349 416.3852 420.83848 426.40757 431.12983 434.22819 434.30787 439.87696 446.24305">Vegetari&#x00b4;ani</tspan></text>
<text xml:space="preserve" transform="matrix(1 0 -0 1 0 595.276)" font-size="9.9626" font-family="Computer Modern"><tspan y="-193.107" x="405.828 413.64866 418.9089 428.04463 430.8142">GyMik</tspan></text>
<path transform="matrix(1,0,0,-1,540.508,419.099)" stroke-width=".398" stroke-linecap="butt" stroke-miterlimit="10" stroke-linejoin="miter" fill="none" stroke="#000000" d="M0 0V71.854"/>
<text xml:space="preserve" transform="matrix(1 0 -0 1 0 595.276)" font-size="24.7871" font-family="Computer Modern" font-weight="bold"><tspan y="-217.148" x="639.156 653.11117 667.0663">712</tspan></text>
<text xml:space="preserve" transform="matrix(1 0 -0 1 0 595.276)" font-size="9.9626" font-family="Computer Modern" font-weight="bold"><tspan y="-205.192" x="627.31 634.84176 639.36477 648.7495 657.666 664.0321 668.7544 674.3235 677.5015 682.75186 687.27487">Esazpralesa</tspan></text>
<text xml:space="preserve" transform="matrix(1 0 -0 1 0 595.276)" font-size="9.9626" font-family="Computer Modern"><tspan y="-192.716" x="607.178 614.9986 620.25888 628.5577 634.09689 634.09689 639.0782 643.5016 646.2712 651.81039 663.42678 669.6534">Gymn&#x00b4;aziumLu</tspan><tspan y="-195.345" x="675.464">&#x02c7;</tspan><tspan y="-192.716" x="675.187 680.7262 685.4285 693.73739 700.5219 703.2915 707.99386">dkaPika</tspan></text>
<path transform="matrix(1,0,0,-1,779.633,419.099)" stroke-width=".398" stroke-linecap="butt" stroke-miterlimit="10" stroke-linejoin="miter" fill="none" stroke="#000000" d="M0 0V71.854"/>
<path transform="matrix(1,0,0,-1,62.058,419.298)" stroke-width=".398" stroke-linecap="butt" stroke-miterlimit="10" stroke-linejoin="miter" fill="none" stroke="#000000" d="M0 0H717.774"/>
<path transform="matrix(1,0,0,-1,62.257,490.83003)" stroke-width=".398" stroke-linecap="butt" stroke-miterlimit="10" stroke-linejoin="miter" fill="none" stroke="#000000" d="M0 0V71.333"/>
<text xml:space="preserve" transform="matrix(1 0 -0 1 0 595.276)" font-size="24.7871" font-family="Computer Modern" font-weight="bold"><tspan y="-144.895" x="160.906 174.86115 188.81629">703</tspan></text>
<text xml:space="preserve" transform="matrix(1 0 -0 1 0 595.276)" font-size="9.9626" font-family="Computer Modern" font-weight="bold"><tspan y="-132.94" x="170.363 176.0915 181.82 187.54851">1234</tspan></text>
<text xml:space="preserve" transform="matrix(1 0 -0 1 0 595.276)" font-size="9.9626" font-family="Computer Modern"><tspan y="-120.984" x="166.703 174.52365 179.7839 188.91962 191.68923">GyMik</tspan></text>
<path transform="matrix(1,0,0,-1,301.382,490.83003)" stroke-width=".398" stroke-linecap="butt" stroke-miterlimit="10" stroke-linejoin="miter" fill="none" stroke="#000000" d="M0 0V71.333"/>
<text xml:space="preserve" transform="matrix(1 0 -0 1 0 595.276)" font-size="24.7871" font-family="Computer Modern" font-weight="bold"><tspan y="-144.895" x="400.031 413.98616 427.94129">715</tspan></text>
<text xml:space="preserve" transform="matrix(1 0 -0 1 0 595.276)" font-size="9.9626" font-family="Computer Modern" font-weight="bold"><tspan y="-132.94" x="393.941 404.82017 410.38926 414.91227 420.48136 425.2036 431.25093 437.2185 437.2982 442.54847 442.86726">Masaryk&#x00b4;a&#x02c7;c</tspan></text>
<text xml:space="preserve" transform="matrix(1 0 -0 1 0 595.276)" font-size="9.9626" font-family="Computer Modern"><tspan y="-120.984" x="354.693 363.8287 368.81 372.73527 377.71656 381.6219 386.88215 391.86344 396.56578 401.55705 409.85588 414.83717 420.0974 428.39628 433.9355 433.9355 438.91679 443.34019 446.10978 451.649 463.26539 470.04994 472.81953 477.24293 481.94529 481.66633">Masarykovogymn&#x00b4;aziumPlze&#x02c7;n</tspan></text>
<path transform="matrix(1,0,0,-1,540.508,490.83003)" stroke-width=".398" stroke-linecap="butt" stroke-miterlimit="10" stroke-linejoin="miter" fill="none" stroke="#000000" d="M0 0V71.333"/>
<text xml:space="preserve" transform="matrix(1 0 -0 1 0 595.276)" font-size="24.7871" font-family="Computer Modern" font-weight="bold"><tspan y="-144.895" x="639.156 653.11117 667.0663">706</tspan></text>
<text xml:space="preserve" transform="matrix(1 0 -0 1 0 595.276)" font-size="9.9626" font-family="Computer Modern" font-weight="bold"><tspan y="-132.94" x="625.024 634.0003 639.8583 640.3664 645.0887 650.339 654.15469 655.4299 662.4236 666.9466 671.3999 676.6502 683.0163 689.3824">Ku&#x02c7;rec&#x00b4;&#x0131;stehno</tspan></text>
<text xml:space="preserve" transform="matrix(1 0 -0 1 0 595.276)" font-size="9.9626" font-family="Computer Modern"><tspan y="-120.984" x="644.953 652.7736 658.0339 667.16958 669.93917">GyMik</tspan></text>
<path transform="matrix(1,0,0,-1,779.633,490.83003)" stroke-width=".398" stroke-linecap="butt" stroke-miterlimit="10" stroke-linejoin="miter" fill="none" stroke="#000000" d="M0 0V71.333"/>
<path transform="matrix(1,0,0,-1,62.058,491.029)" stroke-width=".398" stroke-linecap="butt" stroke-miterlimit="10" stroke-linejoin="miter" fill="none" stroke="#000000" d="M0 0H717.774"/>
<text xml:space="preserve" transform="matrix(1 0 -0 1 0 595.276)" font-size="9.9626" font-family="Computer Modern"><tspan y="19.621" x="412.785">1</tspan></text>
</g>
</svg>
